<?xml version="1.0" standalone="no"?>
<!DOCTYPE svg PUBLIC "-//W3C//DTD SVG 20010904//EN"
 "http://www.w3.org/TR/2001/REC-SVG-20010904/DTD/svg10.dtd">
<svg version="1.0" xmlns="http://www.w3.org/2000/svg"
 width="1024.000000pt" height="1024.000000pt" viewBox="0 0 1024.000000 1024.000000"
 preserveAspectRatio="xMidYMid meet">

<g transform="translate(0.000000,1024.000000) scale(0.100000,-0.100000)"
fill="#000000" stroke="none">
<path d="M2325 9041 c-223 -52 -398 -153 -556 -318 -164 -172 -248 -352 -301
-643 -30 -164 -29 -385 1 -495 80 -294 288 -494 546 -524 113 -13 173 8 260
90 26 24 65 46 113 62 75 26 147 67 204 117 l33 30 878 0 877 0 0 -115 0 -115
-354 0 c-383 0 -449 -6 -608 -56 -349 -110 -646 -401 -761 -744 -64 -191 -62
-162 -62 -1095 0 -791 1 -856 19 -935 35 -160 85 -287 169 -425 33 -54 37 -67
37 -130 0 -38 -4 -95 -9 -125 -5 -30 -12 -187 -16 -347 -7 -275 -9 -296 -30
-340 l-23 -48 -112 115 c-270 278 -471 617 -603 1015 -40 121 -97 349 -97 389
0 26 0 26 89 26 50 0 92 4 95 9 3 5 26 6 50 4 63 -8 107 3 139 32 35 33 37 83
3 122 -28 32 -41 33 -385 38 -203 3 -214 7 -227 71 -5 24 0 37 19 60 l25 29
169 0 c348 0 378 2 411 30 36 30 47 75 28 120 -25 59 -30 60 -376 61 -173 1
-320 2 -326 3 -5 0 -20 10 -32 21 -28 26 -29 79 -3 111 l19 24 329 5 c361 5
364 6 389 67 19 43 5 93 -33 123 -24 19 -40 20 -298 20 -269 0 -272 0 -292 23
-11 12 -24 32 -27 44 -9 30 19 82 47 87 12 3 131 7 265 10 189 5 249 9 272 21
59 30 68 94 19 141 -28 27 -37 29 -108 30 -43 1 -87 7 -99 13 -11 6 -48 11
-80 11 l-60 0 15 68 c8 37 36 137 60 222 87 296 95 331 96 425 2 78 -2 97 -24
146 -33 70 -87 123 -147 143 -57 20 -87 20 -143 1 -64 -22 -113 -66 -154 -139
-88 -157 -203 -494 -265 -779 -16 -71 -30 -130 -32 -131 -2 -1 -16 -10 -31
-20 -16 -10 -37 -36 -48 -59 -17 -39 -19 -73 -19 -559 0 -573 0 -573 64 -621
29 -23 34 -34 49 -122 130 -731 498 -1403 1078 -1970 154 -151 233 -218 399
-336 213 -154 507 -310 794 -423 l140 -54 36 -95 c43 -112 92 -182 159 -232
85 -62 105 -65 385 -65 251 0 252 0 304 26 52 26 106 82 156 161 l26 43 139 0
140 0 35 -59 c41 -67 112 -136 161 -157 27 -11 91 -14 284 -14 297 0 323 6
421 96 68 64 101 116 140 223 l28 76 128 53 c599 246 1028 566 1416 1053 94
118 105 129 128 123 157 -42 299 -27 449 47 227 112 370 376 331 613 -23 145
-74 244 -182 358 l-66 70 13 32 c29 68 85 268 110 392 25 119 30 132 65 169
21 22 43 50 49 62 8 15 11 180 11 548 0 584 2 567 -65 623 -28 23 -35 38 -45
92 -6 36 -27 125 -46 198 -179 688 -479 1204 -990 1702 -311 302 -680 547
-1101 729 -391 169 -896 281 -1272 281 -56 0 -87 7 -177 43 l-109 42 -800 2
c-440 2 -809 5 -821 8 -11 2 -52 29 -90 60 -86 69 -244 149 -349 177 -115 30
-348 35 -460 9z m339 -407 c93 -24 202 -86 290 -165 132 -119 38 -109 972
-109 778 0 815 -1 875 -20 195 -60 351 -254 399 -497 17 -88 20 -141 20 -407
l0 -306 -205 0 -205 0 0 163 0 162 28 13 c34 15 61 39 99 88 25 34 28 45 28
119 0 72 -3 86 -28 123 -82 124 -249 137 -347 26 l-30 -35 -893 -2 -892 -2 -7
68 c-22 226 -155 427 -343 518 -97 46 -156 59 -284 59 l-96 1 63 58 c69 65
175 123 267 145 81 19 213 20 289 0z m3143 -495 c130 -30 291 -119 345 -192
67 -89 97 -170 105 -282 14 -202 -103 -399 -293 -491 -75 -37 -84 -39 -196
-42 l-118 -4 0 303 c0 328 -8 431 -41 554 -29 107 -35 165 -18 176 18 12 112
3 216 -22z m-3602 -108 c46 -20 101 -79 121 -127 51 -122 -32 -274 -164 -303
-165 -35 -307 102 -272 263 12 58 30 89 73 128 61 55 168 73 242 39z m4640
-475 c330 -249 638 -601 818 -936 109 -202 211 -468 266 -692 44 -177 47 -165
-51 -172 -180 -11 -256 -21 -274 -36 -34 -27 -43 -44 -44 -82 0 -28 7 -42 29
-61 26 -22 40 -24 166 -30 76 -4 196 -7 266 -7 70 0 135 -3 144 -6 19 -8 45
-55 45 -84 0 -12 -12 -32 -26 -45 l-26 -24 -285 -3 -285 -3 -25 -29 c-22 -25
-25 -37 -20 -79 3 -38 11 -54 32 -73 l28 -24 329 0 330 0 29 -29 c46 -46 35
-108 -22 -129 -13 -5 -169 -10 -347 -11 -227 -1 -328 -5 -342 -13 -43 -27 -53
-108 -19 -151 33 -43 80 -49 352 -46 l249 4 24 -28 c30 -35 31 -77 2 -104 -22
-19 -39 -21 -303 -26 l-280 -6 -22 -26 c-35 -39 -31 -98 7 -137 28 -28 35 -30
107 -29 43 0 122 -2 176 -5 91 -5 97 -7 97 -27 0 -40 -47 -231 -85 -343 -36
-110 -37 -111 -82 -133 -236 -115 -383 -344 -383 -600 0 -83 -1 -87 -34 -126
l-34 -40 -80 165 c-102 212 -168 363 -182 422 -12 45 -11 48 24 101 80 120
149 289 183 450 16 75 18 156 18 917 0 664 -3 850 -14 910 -69 381 -341 727
-709 901 -48 23 -88 43 -90 44 -1 1 15 29 36 61 81 123 138 290 149 441 l6 83
36 -22 c20 -11 72 -48 116 -82z m-725 -794 c0 -9 94 -46 175 -68 152 -41 336
-167 425 -291 50 -70 112 -196 136 -278 16 -55 18 -132 22 -855 4 -860 3 -882
-49 -1024 -25 -68 -99 -210 -118 -226 -3 -3 -19 -23 -36 -45 -81 -110 -201
-200 -345 -258 -83 -34 -110 -40 -218 -48 -71 -6 -611 -8 -1270 -7 -1295 4
-1186 -3 -1357 86 -118 62 -256 196 -330 322 -55 94 -109 241 -124 340 -14 87
-15 1496 -1 1610 34 278 171 475 417 600 141 71 109 70 1306 69 1148 0 1125
-1 1282 54 83 29 85 29 85 19z m1986 -3187 c191 -57 213 -319 33 -409 -89 -44
-176 -30 -246 41 -123 122 -70 323 98 372 48 13 59 13 115 -4z m-1979 -504
c26 -12 48 -32 58 -52 20 -37 241 -672 258 -737 9 -37 8 -49 -7 -77 -37 -69
-179 -89 -219 -31 -4 6 -14 35 -23 64 l-16 52 -165 -2 -165 -3 -34 -85 c-18
-47 -41 -91 -51 -98 -12 -9 -45 -12 -102 -10 -77 3 -85 5 -103 29 -11 15 -20
42 -20 62 0 37 315 789 356 850 38 56 152 74 233 38z m652 3 c57 -33 56 -27
59 -446 3 -415 -1 -456 -43 -484 -37 -24 -119 -23 -153 3 -51 38 -53 63 -50
491 l3 394 33 29 c26 23 42 29 78 29 25 0 58 -7 73 -16z m-3214 -15 c67 -32
131 -93 162 -157 25 -50 28 -68 28 -152 0 -83 -3 -102 -27 -151 -35 -70 -89
-125 -153 -155 -44 -21 -65 -24 -172 -24 l-123 0 0 -125 c0 -120 -1 -127 -25
-150 -44 -45 -119 -24 -149 40 -15 31 -17 64 -14 236 4 256 -11 239 203 239
150 0 154 1 184 26 24 20 31 34 31 62 -1 80 -34 94 -214 90 -141 -3 -145 -2
-170 21 -23 21 -26 33 -26 88 0 123 17 132 248 133 154 0 177 -2 217 -21z
m1163 -12 c72 -38 123 -86 157 -149 24 -44 30 -68 33 -138 5 -118 -19 -182
-102 -266 -34 -34 -67 -63 -75 -66 -10 -3 1 -23 38 -71 44 -56 58 -67 83 -67
56 0 109 -76 94 -135 -14 -56 -36 -65 -161 -65 l-114 0 -67 78 c-36 42 -89
108 -117 145 l-52 68 -85 -3 -85 -4 -5 -109 c-6 -125 -11 -140 -51 -160 -40
-21 -216 -21 -247 1 -51 36 -52 43 -52 479 0 428 3 458 47 484 12 7 126 10
363 8 l345 -2 53 -28z m596 -667 c53 -26 88 -77 94 -140 6 -67 -30 -129 -91
-159 -55 -27 -92 -27 -147 2 -63 31 -90 76 -90 147 0 69 26 114 85 147 49 28
96 29 149 3z"/>
<path d="M3802 6126 c-183 -45 -342 -192 -403 -374 -27 -78 -31 -226 -10 -302
53 -187 205 -337 387 -384 76 -20 212 -21 279 -2 180 49 329 185 387 354 19
54 23 88 23 177 0 128 -15 184 -76 281 -127 201 -367 303 -587 250z m186 -352
c74 -31 131 -111 132 -185 0 -49 -43 -129 -85 -158 -45 -30 -88 -39 -148 -29
-192 29 -215 305 -32 372 53 19 88 19 133 0z"/>
<path d="M5821 6124 c-102 -27 -181 -73 -255 -148 -138 -139 -193 -324 -151
-505 34 -143 146 -292 271 -358 181 -96 398 -90 559 15 166 108 257 271 258
462 1 155 -47 269 -162 385 -137 138 -343 197 -520 149z m204 -353 c72 -32
125 -113 125 -192 0 -14 -12 -49 -26 -77 -48 -97 -163 -134 -261 -84 -142 73
-136 279 10 348 62 28 98 30 152 5z"/>
<path d="M4775 4468 c-78 -27 -135 -106 -135 -185 0 -58 37 -122 94 -160 l48
-33 167 0 c178 0 216 9 270 60 29 28 60 96 61 131 0 73 -45 143 -114 175 -47
22 -63 24 -206 23 -85 0 -168 -5 -185 -11z"/>
<path d="M5976 2638 c-25 -68 -46 -129 -46 -135 0 -10 25 -13 90 -13 79 0 90
2 90 17 0 21 -69 234 -80 246 -4 4 -28 -48 -54 -115z"/>
<path d="M4274 2817 c-3 -8 -4 -54 -2 -103 l3 -89 110 -3 c154 -4 192 3 232
43 52 52 41 115 -27 150 -40 20 -308 22 -316 2z"/>
</g>
</svg>
